<svg version="1.0" xmlns="http://www.w3.org/2000/svg" width="682.667" height="682.667" viewBox="0 0 512 512"><path d="M105.8 8.3c-4.1 1.9-71 56.5-84.2 68.7-8.7 8-11.5 17.9-8.1 28.1 4.8 14 21.8 21.1 34.6 14.6 2.5-1.2 23.2-17.8 46-36.9C129.8 53 136 47.4 138.5 42.9c3.2-6 3.8-13.7 1.6-20.3-1.8-5.1-8.5-12.4-13.6-14.7-5.7-2.6-14.8-2.5-20.7.4m280.4-.8c-5.6 2.4-9.8 6.3-12.7 11.7-2.4 4.3-2.9 6.5-2.9 11.9 0 12.3-.3 12 46.4 51.2 24 20.1 43.6 35.9 46.5 37.3 17.7 8.5 38.2-5.7 36.2-25.1-.8-7.5-3.7-12.5-11.4-19.4-19.2-17.1-77.4-64.6-81.8-66.7-5.8-2.8-15-3.2-20.3-.9M241.5 51.6c-80.9 6.4-150 50.6-187.7 120.1C34.8 206.6 26 241.5 26 282c0 46.9 12.8 88.7 39.3 128.5 35.5 53.2 93 89.2 158.2 99.1 16.4 2.5 48.3 2.5 65 0 104.9-15.5 185-98.7 196.5-204.1 1.3-11.9 1.3-36.1-.1-48.3-4.7-43.3-22.2-85.9-49.5-119.9-36.4-45.4-89.8-75.7-148-83.8-10.5-1.5-37.1-2.6-45.9-1.9M270 103c24.5 2.1 44.2 7.6 65.5 18.2 76 37.9 114.8 122.6 94 205-14.4 57-58.3 104.8-114.6 124.6-49.8 17.6-106.3 11.5-151.8-16.2-22.7-13.9-42.9-33.4-57.5-55.8-11.8-18.2-21.3-41.6-25.6-63.4-3.1-15.3-3.8-41.8-1.6-57.4 4.2-29.6 14.4-55.7 31.6-80.2 7.9-11.4 29.5-33.2 40.6-41.1 21.6-15.2 43.3-24.9 68-30.2 18.3-4 33.6-5 51.4-3.5" fill="#fff"/><path d="M239.2 156.6c-2.5 1.5-5.1 4.2-6.5 6.7l-2.2 4.2V233c0 64.4 0 65.6 2.1 70 1.1 2.5 3.6 5.9 5.4 7.7 2.7 2.6 89.7 55.6 99.7 60.7 3.9 2 12.5 2.1 16.1.2s7.8-6.5 9.1-9.9c2.7-7.1.4-15.8-5.4-20.4-1.7-1.4-22.2-13.8-45.6-27.7l-42.4-25.2-.5-61-.5-61-2.8-4.2c-5.4-8.3-17.7-10.9-26.5-5.6" fill="#fff"/></svg>